<?xml version="1.0" encoding="iso-8859-1"?>
<!-- Generator: Adobe Illustrator 18.0.0, SVG Export Plug-In . SVG Version: 6.00 Build 0)  -->
<!DOCTYPE svg PUBLIC "-//W3C//DTD SVG 1.1//EN" "http://www.w3.org/Graphics/SVG/1.1/DTD/svg11.dtd">
<svg version="1.1" id="Capa_1" xmlns="http://www.w3.org/2000/svg" xmlns:xlink="http://www.w3.org/1999/xlink" x="0px" y="0px"
	 viewBox="0 0 213.77 213.77" style="enable-background:new 0 0 213.77 213.77;" xml:space="preserve">
<path d="M27.976,213.77l55.077-55.076c13.392,8.293,28.849,12.746,44.997,12.747c0.002,0,0,0,0.002,0
	c22.895,0,44.422-8.917,60.611-25.106c16.191-16.19,25.107-37.718,25.107-60.616c-0.001-22.897-8.917-44.423-25.106-60.612
	c-16.19-16.19-37.717-25.106-60.614-25.106c-22.897,0-44.423,8.916-60.612,25.106C51.246,41.297,42.33,62.824,42.33,85.722
	c0.001,16.148,4.454,31.604,12.746,44.997L0,185.794L27.976,213.77z M95.412,53.082c8.718-8.717,20.309-13.518,32.638-13.518
	c12.33,0,23.921,4.801,32.638,13.518c8.718,8.717,13.519,20.308,13.519,32.638c0.001,12.33-4.8,23.921-13.519,32.639
	c-8.717,8.718-20.308,13.519-32.637,13.519c-12.33-0.001-23.921-4.801-32.639-13.519c-8.717-8.717-13.519-20.307-13.519-32.637
	S86.694,61.8,95.412,53.082z"/>
<g>
</g>
<g>
</g>
<g>
</g>
<g>
</g>
<g>
</g>
<g>
</g>
<g>
</g>
<g>
</g>
<g>
</g>
<g>
</g>
<g>
</g>
<g>
</g>
<g>
</g>
<g>
</g>
<g>
</g>
</svg>
